<svg width="68" height="68" viewBox="0 0 68 68" fill="none" xmlns="http://www.w3.org/2000/svg">
<path d="M30.4738 28.8602C30.4738 39.286 24.557 43.5559 17.259 43.5559C9.96093 43.5559 4.04413 39.286 4.04413 28.8602C4.04413 18.4344 17.259 1.62036 17.259 1.62036C17.259 1.62036 30.4738 18.4344 30.4738 28.8602Z" fill="#60C13D"/>
<path d="M17.259 44.2199C13.2348 44.2199 9.84141 42.9648 7.45078 40.5875C4.75469 37.9113 3.38672 33.9668 3.38672 28.8602C3.38672 24.4176 5.63789 18.4012 10.0871 10.9902C13.3676 5.51172 16.7012 1.25508 16.7344 1.21523C16.8605 1.05586 17.0531 0.962891 17.259 0.962891C17.4648 0.962891 17.6574 1.05586 17.7836 1.21523C17.8168 1.25508 21.1504 5.51172 24.4375 10.9969C28.8867 18.4078 31.1379 24.4242 31.1379 28.8668C31.1379 33.9734 29.7699 37.918 27.0738 40.5941C24.6699 42.9648 21.2832 44.2199 17.259 44.2199ZM17.259 2.71602C16.2031 4.12383 13.693 7.55039 11.216 11.6875C8.24766 16.6348 4.71484 23.634 4.71484 28.8602C4.71484 33.6016 5.95 37.2273 8.38711 39.6445C10.5254 41.7695 13.6 42.8918 17.259 42.8918C20.918 42.8918 23.9926 41.7695 26.1309 39.6445C28.568 37.2273 29.8031 33.6016 29.8031 28.8602C29.8031 23.6273 26.2637 16.6281 23.2887 11.6742C20.8184 7.54375 18.3148 4.11719 17.259 2.71602Z" fill="black"/>
<path d="M17.259 51.2058C16.8937 51.2058 16.5949 50.907 16.5949 50.5418V11.5082C16.5949 11.1429 16.8937 10.8441 17.259 10.8441C17.6242 10.8441 17.923 11.1429 17.923 11.5082V50.5418C17.923 50.9137 17.6242 51.2058 17.259 51.2058Z" fill="black"/>
<path d="M17.259 26.6488C17.0797 26.6488 16.8938 26.5758 16.7676 26.4297L9.96096 18.8527C9.71526 18.5805 9.73518 18.1621 10.0141 17.9164C10.2864 17.6707 10.7047 17.6906 10.9504 17.9695L17.7571 25.5465C18.0028 25.8188 17.9828 26.2371 17.7039 26.4828C17.5778 26.5891 17.4184 26.6488 17.259 26.6488ZM15.3664 34.4316C15.1805 34.4316 14.9946 34.352 14.8617 34.1992L9.62893 28.0566C9.38987 27.7777 9.42307 27.3594 9.70198 27.1203C9.98089 26.8812 10.3992 26.9145 10.6383 27.1934L15.8711 33.3359C16.1102 33.6148 16.077 34.0332 15.7981 34.2723C15.6719 34.3785 15.5192 34.4316 15.3664 34.4316ZM17.259 19.0719C17.0864 19.0719 16.9203 19.0055 16.7875 18.8793C16.5285 18.6203 16.5285 18.202 16.7875 17.943L21.3961 13.3344C21.6551 13.0754 22.0735 13.0754 22.3324 13.3344C22.5914 13.5934 22.5914 14.0117 22.3324 14.2707L17.7305 18.8793C17.5977 19.0055 17.425 19.0719 17.259 19.0719ZM17.7039 32.652C17.5246 32.652 17.3387 32.5789 17.2125 32.4328C16.9668 32.1605 16.9934 31.7422 17.2657 31.4965L23.986 25.4668C24.2582 25.2211 24.6766 25.2477 24.9223 25.5199C25.168 25.7922 25.1414 26.2105 24.8692 26.4562L18.1489 32.4859C18.0227 32.5988 17.8633 32.652 17.7039 32.652Z" fill="black"/>
<path d="M52.9988 39.1H48.5496C47.9785 37.8582 43.4031 28.6145 30.0621 28.6211C20.1477 28.6211 1.0293 39.0402 1.88594 41.5172C2.32422 42.7922 3.17422 43.5293 3.45977 46.8762C3.66563 49.2535 4.15039 52.1953 4.15039 52.1953C4.15039 55.9074 7.1586 58.9223 10.8773 58.9223H66.2734V50.0902C66.2734 42.7523 60.3301 39.1 52.9988 39.1Z" fill="#D64F34"/>
<path d="M66.2734 59.5797H10.8707C6.81326 59.5797 3.51287 56.2926 3.47967 52.2485C3.41326 51.8368 2.98162 49.134 2.78904 46.9293C2.58982 44.5985 2.11834 43.6223 1.69998 42.7657C1.53397 42.427 1.38123 42.1016 1.24842 41.7297C1.09568 41.2782 1.21522 40.7668 1.62029 40.2024C2.93514 38.3563 7.66326 35.3415 13.3941 32.6985C19.9285 29.6836 25.998 27.9504 30.0488 27.9504H30.0621C42.6726 27.9504 47.7129 35.9856 48.9547 38.4293H52.9855C56.9168 38.4293 60.3035 39.4254 62.7738 41.3114C65.4898 43.3833 66.9242 46.4114 66.9242 50.0836V58.9157C66.9375 59.2809 66.6453 59.5797 66.2734 59.5797ZM2.52342 41.3313C2.62967 41.6235 2.75584 41.8891 2.90193 42.1946C3.34686 43.1043 3.89803 44.2465 4.11717 46.8231C4.31639 49.1473 4.79451 52.0626 4.80115 52.0891C4.80779 52.1223 4.80779 52.1622 4.80779 52.1954C4.80779 55.5356 7.52381 58.2583 10.8707 58.2583H65.6094V50.0903C65.6094 46.8497 64.3543 44.1801 61.9836 42.3739C59.7457 40.6672 56.6379 39.7641 52.9988 39.7641H48.5496C48.2906 39.7641 48.0582 39.6114 47.9453 39.379C47.1683 37.6922 42.6461 29.2852 30.0687 29.2852H30.0554C25.9316 29.2852 19.4371 31.2442 12.6769 34.5114C9.84803 35.8793 7.2449 37.3668 5.33904 38.6883C2.80232 40.4614 2.54998 41.2184 2.52342 41.3313Z" fill="black"/>
<path d="M30.0621 28.6145C25.8453 28.6145 20.566 30.7262 15.3465 33.3825L19.3973 44.0473H43.9809L48.5563 39.0934C47.9785 37.8583 43.4098 28.6079 30.0621 28.6145Z" fill="#80F9E7"/>
<path d="M43.9809 44.718H19.3973C19.1184 44.718 18.8727 44.5454 18.7797 44.2864L14.7289 33.6215C14.6094 33.3028 14.7488 32.9508 15.0477 32.7915C21.5289 29.4911 26.3035 27.9504 30.0688 27.9504H30.082C43.4695 27.9504 48.3238 37.0016 49.1605 38.8211C49.2734 39.0668 49.227 39.3524 49.0477 39.5516L44.4723 44.5055C44.3395 44.6383 44.1668 44.718 43.9809 44.718ZM19.8555 43.3899H43.6887L47.7594 38.9805C46.5707 36.6629 41.8625 29.2786 30.0754 29.2786H30.0621C26.6621 29.2786 22.1199 30.7262 16.1766 33.7079L19.8555 43.3899Z" fill="black"/>
<path d="M31.6891 44.718C31.3239 44.718 31.025 44.4192 31.025 44.054V28.6145C31.025 28.2493 31.3239 27.9504 31.6891 27.9504C32.0543 27.9504 32.3531 28.2493 32.3531 28.6145V44.054C32.3531 44.4192 32.0543 44.718 31.6891 44.718Z" fill="black"/>
<path d="M11.3887 58.9157C11.3887 59.8165 11.5661 60.7085 11.9108 61.5408C12.2556 62.3731 12.7609 63.1293 13.3979 63.7663C14.0348 64.4032 14.7911 64.9085 15.6233 65.2533C16.4556 65.598 17.3476 65.7754 18.2484 65.7754C19.1493 65.7754 20.0413 65.598 20.8736 65.2533C21.7058 64.9085 22.462 64.4032 23.099 63.7663C23.736 63.1293 24.2413 62.3731 24.586 61.5408C24.9308 60.7085 25.1082 59.8165 25.1082 58.9157C25.1082 58.0148 24.9308 57.1228 24.586 56.2906C24.2413 55.4583 23.736 54.7021 23.099 54.0651C22.462 53.4281 21.7058 52.9228 20.8736 52.5781C20.0413 52.2333 19.1493 52.0559 18.2484 52.0559C17.3476 52.0559 16.4556 52.2333 15.6233 52.5781C14.7911 52.9228 14.0348 53.4281 13.3979 54.0651C12.7609 54.7021 12.2556 55.4583 11.9108 56.2906C11.5661 57.1228 11.3887 58.0148 11.3887 58.9157Z" fill="#B6B7B7"/>
<path d="M18.2484 66.4395C14.098 66.4395 10.7246 63.0661 10.7246 58.9157C10.7246 54.7653 14.098 51.3918 18.2484 51.3918C22.3988 51.3918 25.7723 54.7653 25.7723 58.9157C25.7723 63.0661 22.3988 66.4395 18.2484 66.4395ZM18.2484 52.72C14.8285 52.72 12.0527 55.5024 12.0527 58.9157C12.0527 62.3356 14.8352 65.1114 18.2484 65.1114C21.6684 65.1114 24.4441 62.329 24.4441 58.9157C24.4441 55.5024 21.6684 52.72 18.2484 52.72Z" fill="black"/>
<path d="M43.9808 58.9157C43.9808 60.735 44.7036 62.4798 45.99 63.7663C47.2765 65.0527 49.0213 65.7754 50.8406 65.7754C52.6599 65.7754 54.4047 65.0527 55.6912 63.7663C56.9776 62.4798 57.7004 60.735 57.7004 58.9157C57.7004 57.0964 56.9776 55.3515 55.6912 54.0651C54.4047 52.7786 52.6599 52.0559 50.8406 52.0559C49.0213 52.0559 47.2765 52.7786 45.99 54.0651C44.7036 55.3515 43.9808 57.0964 43.9808 58.9157Z" fill="#B6B7B7"/>
<path d="M50.8406 66.4395C46.6902 66.4395 43.3168 63.0661 43.3168 58.9157C43.3168 54.7653 46.6902 51.3918 50.8406 51.3918C54.991 51.3918 58.3644 54.7653 58.3644 58.9157C58.3644 63.0661 54.991 66.4395 50.8406 66.4395ZM50.8406 52.72C47.4207 52.72 44.6449 55.5024 44.6449 58.9157C44.6449 62.3356 47.4273 65.1114 50.8406 65.1114C54.2539 65.1114 57.0363 62.329 57.0363 58.9157C57.0363 55.5024 54.2539 52.72 50.8406 52.72Z" fill="black"/>
<path d="M29.4512 67.0105H3.95782C3.59259 67.0105 3.29376 66.7117 3.29376 66.3464C3.29376 65.9812 3.59259 65.6824 3.95782 65.6824H29.4512C29.8164 65.6824 30.1152 65.9812 30.1152 66.3464C30.1152 66.7117 29.8164 67.0105 29.4512 67.0105ZM65.7555 67.0105H40.2621C39.8969 67.0105 39.5981 66.7117 39.5981 66.3464C39.5981 65.9812 39.8969 65.6824 40.2621 65.6824H65.7555C66.1207 65.6824 66.4195 65.9812 66.4195 66.3464C66.4195 66.7117 66.1207 67.0105 65.7555 67.0105Z" fill="black"/>
</svg>
