<svg width="32" height="32" viewBox="0 0 32 32" fill="none" xmlns="http://www.w3.org/2000/svg">
<path d="M6.99799 15.134H8.07599V24.776H6.99799V15.134Z" fill="#CFD7DB"/>
<path d="M2.71399 19.4139H12.356V20.4959H2.71399V19.4139Z" fill="#CFD7DB"/>
<path d="M3.75 16.926L4.512 16.166L11.326 22.986L10.562 23.746L3.75 16.926Z" fill="#CFD7DB"/>
<path d="M4.512 23.75L3.75 22.99L10.558 16.16L11.322 16.922L4.512 23.75Z" fill="#CFD7DB"/>
<path d="M7.53601 25.644C6.02776 25.6424 4.58171 25.0427 3.51503 23.9764C2.44835 22.9101 1.84813 21.4642 1.84601 19.956C1.84601 16.818 4.39801 14.266 7.53601 14.266C10.674 14.266 13.226 16.816 13.226 19.956C13.2239 21.4642 12.6237 22.9101 11.557 23.9764C10.4903 25.0427 9.04426 25.6424 7.53601 25.644ZM7.53601 15.474C6.34814 15.4761 5.20956 15.9491 4.3698 16.7892C3.53004 17.6293 3.05759 18.7681 3.05601 19.956C3.05601 22.424 5.06601 24.432 7.53601 24.432C10.006 24.432 12.016 22.424 12.016 19.956C12.0144 18.7681 11.542 17.6293 10.7022 16.7892C9.86246 15.9491 8.72388 15.4761 7.53601 15.474Z" fill="#5F7B89"/>
<path d="M24.192 15.134H25.272V24.776H24.192V15.134Z" fill="#CFD7DB"/>
<path d="M19.912 19.4139H29.552V20.4959H19.912V19.4139Z" fill="#CFD7DB"/>
<path d="M20.946 16.9239L21.708 16.1639L28.518 22.9899L27.754 23.7499L20.946 16.9239Z" fill="#CFD7DB"/>
<path d="M21.708 23.752L20.944 22.992L27.748 16.16L28.512 16.92L21.708 23.752Z" fill="#CFD7DB"/>
<path d="M24.692 25.378C23.1834 25.3769 21.7368 24.7775 20.6697 23.7111C19.6026 22.6447 19.0021 21.1986 19 19.69C19.0016 18.1811 19.6019 16.7344 20.669 15.6676C21.7362 14.6008 23.1831 14.0011 24.692 14C26.2002 14.0021 27.6461 14.6023 28.7124 15.669C29.7787 16.7357 30.3784 18.1818 30.38 19.69C30.3784 21.1981 29.7786 22.6439 28.7123 23.7103C27.6459 24.7766 26.2001 25.3764 24.692 25.378ZM24.692 15.208C23.5038 15.2096 22.3647 15.6823 21.5245 16.5225C20.6843 17.3627 20.2116 18.5018 20.21 19.69C20.2126 20.8773 20.6859 22.0152 21.526 22.8542C22.3662 23.6932 23.5047 24.1649 24.692 24.166C25.8792 24.1649 27.0174 23.6932 27.8573 22.8541C28.6971 22.015 29.1699 20.8772 29.172 19.69C29.1704 18.5021 28.698 17.3633 27.8582 16.5232C27.0184 15.6831 25.8799 15.2101 24.692 15.208Z" fill="#5F7B89"/>
<path d="M10.748 9.52401L11.858 9.11401L16.348 21.266L15.236 21.676L10.748 9.52401Z" fill="#347D1F"/>
<path d="M7.168 20.304L8.202 20.878L12.638 12.564L11.602 11.992L7.168 20.304ZM15.654 20.086L16.726 20.636L21.662 12.044L20.588 11.494L15.654 20.086Z" fill="#347D1F"/>
<path d="M25.508 21.114L24.41 21.554L18.5 6.80005L19.984 6.95405L25.508 21.114Z" fill="#347D1F"/>
<path d="M12.122 10.756H21.216V11.938H12.122V10.756Z" fill="#347D1F"/>
<path d="M21.406 8.14402H21.37L19.35 8.03002L19.42 6.76202L21.42 6.87602C21.726 6.86602 22.676 6.74202 22.676 5.54602H23.946C23.946 7.45202 22.426 8.14402 21.406 8.14402Z" fill="#4D5462"/>
<path d="M21.954 8.06802L21.824 6.80602C22.024 6.78202 22.678 6.61402 22.678 5.54602H23.948C23.946 7.39202 22.642 8.00402 21.954 8.06802Z" fill="#4D5462"/>
<path d="M13.582 7.17004L9.81199 7.94804C9.24999 8.06804 8.89199 8.64804 9.01799 9.24804C9.14199 9.84804 9.38799 10.304 10.262 10.122L10.33 10.072C10.666 10.016 11.218 9.69204 11.762 9.19204C12.012 8.96004 12.226 8.72804 12.396 8.51004L12.466 8.45404C13.03 8.33804 14.812 8.21004 14.802 7.91004L14.776 7.78004C14.744 7.59204 14.596 6.95804 13.582 7.17004Z" fill="#4D5462"/>
<path d="M17.978 21.0981C17.978 22.2941 16.878 23.0121 15.524 23.0121L9.18601 21.6761C7.79801 21.2781 6.73001 21.1181 6.73001 19.7261V20.2341C6.73001 19.0341 7.59601 18.9301 8.95001 18.9301H15.524C16.878 18.9301 17.978 19.8981 17.978 21.0981Z" fill="#347D1F"/>
</svg>
