<svg width="32" height="48" viewBox="0 0 32 48" fill="none" xmlns="http://www.w3.org/2000/svg">
<path d="M8.83949 41.0923H7.73153C7.68892 40.8556 7.60961 40.6473 7.49361 40.4673C7.3776 40.2874 7.23556 40.1347 7.06747 40.0092C6.89938 39.8838 6.71117 39.7891 6.50284 39.7251C6.29688 39.6612 6.07789 39.6293 5.84588 39.6293C5.42685 39.6293 5.05161 39.7346 4.72017 39.9453C4.3911 40.156 4.13068 40.465 3.93892 40.8722C3.74953 41.2794 3.65483 41.7765 3.65483 42.3636C3.65483 42.9555 3.74953 43.455 3.93892 43.8622C4.13068 44.2694 4.39228 44.5772 4.72372 44.7855C5.05516 44.9938 5.42803 45.098 5.84233 45.098C6.07197 45.098 6.28977 45.0672 6.49574 45.0057C6.70407 44.9418 6.89228 44.8482 7.06037 44.7251C7.22846 44.602 7.3705 44.4517 7.48651 44.2741C7.60488 44.0942 7.68655 43.8883 7.73153 43.6562L8.83949 43.6598C8.7803 44.0173 8.66548 44.3464 8.49503 44.647C8.32694 44.9453 8.11032 45.2034 7.84517 45.4212C7.58239 45.6366 7.28172 45.8035 6.94318 45.9219C6.60464 46.0402 6.23532 46.0994 5.83523 46.0994C5.20549 46.0994 4.64441 45.9503 4.15199 45.652C3.65956 45.3513 3.27131 44.9216 2.98722 44.3629C2.70549 43.8042 2.56463 43.1378 2.56463 42.3636C2.56463 41.5871 2.70668 40.9207 2.99077 40.3643C3.27486 39.8056 3.66312 39.3771 4.15554 39.0788C4.64796 38.7782 5.20786 38.6278 5.83523 38.6278C6.22112 38.6278 6.58097 38.6835 6.91477 38.7947C7.25095 38.9036 7.55279 39.0646 7.82031 39.2777C8.08783 39.4884 8.30919 39.7464 8.48438 40.0518C8.65956 40.3549 8.77794 40.7017 8.83949 41.0923ZM11.1291 42.7614V46H10.0673V38.7273H11.1149V41.4332H11.1824C11.3102 41.1397 11.5055 40.9065 11.7683 40.7337C12.0311 40.5608 12.3743 40.4744 12.7981 40.4744C13.1722 40.4744 13.4989 40.5514 13.7782 40.7053C14.06 40.8591 14.2778 41.0888 14.4316 41.3942C14.5879 41.6972 14.666 42.076 14.666 42.5305V46H13.6042V42.6584C13.6042 42.2583 13.5012 41.9482 13.2953 41.728C13.0893 41.5054 12.8029 41.3942 12.4359 41.3942C12.185 41.3942 11.96 41.4474 11.7612 41.554C11.5647 41.6605 11.4096 41.8168 11.296 42.0227C11.1847 42.2263 11.1291 42.4725 11.1291 42.7614ZM17.6703 46.1207C17.3246 46.1207 17.0121 46.0568 16.7328 45.929C16.4534 45.7988 16.2321 45.6106 16.0687 45.3643C15.9077 45.1181 15.8272 44.8163 15.8272 44.4588C15.8272 44.151 15.8864 43.8977 16.0048 43.6989C16.1232 43.5 16.283 43.3426 16.4842 43.2266C16.6854 43.1106 16.9103 43.023 17.1589 42.9638C17.4075 42.9046 17.6608 42.8596 17.9189 42.8288C18.2456 42.791 18.5107 42.7602 18.7143 42.7365C18.9179 42.7105 19.0659 42.669 19.1582 42.6122C19.2505 42.5554 19.2967 42.4631 19.2967 42.3352V42.3104C19.2967 42.0002 19.2091 41.7599 19.0339 41.5895C18.8611 41.419 18.603 41.3338 18.2598 41.3338C17.9023 41.3338 17.6206 41.4131 17.4146 41.5717C17.211 41.728 17.0701 41.902 16.992 42.0938L15.9941 41.8665C16.1125 41.535 16.2853 41.2675 16.5126 41.0639C16.7422 40.858 17.0062 40.7088 17.3045 40.6165C17.6028 40.5218 17.9165 40.4744 18.2456 40.4744C18.4634 40.4744 18.6942 40.5005 18.938 40.5526C19.1842 40.6023 19.4139 40.6946 19.627 40.8295C19.8424 40.9645 20.0188 41.1574 20.1561 41.4084C20.2934 41.657 20.362 41.9801 20.362 42.3778V46H19.3251V45.2543H19.2825C19.2138 45.3916 19.1109 45.5265 18.9735 45.6591C18.8362 45.7917 18.6599 45.9018 18.4444 45.9893C18.229 46.0769 17.9709 46.1207 17.6703 46.1207ZM17.9011 45.2685C18.1947 45.2685 18.4456 45.2105 18.6539 45.0945C18.8646 44.9785 19.0244 44.8269 19.1333 44.6399C19.2446 44.4505 19.3002 44.2481 19.3002 44.0327V43.3295C19.2624 43.3674 19.189 43.4029 19.0801 43.4361C18.9735 43.4669 18.8516 43.4941 18.7143 43.5178C18.577 43.5391 18.4432 43.5592 18.313 43.5781C18.1828 43.5947 18.0739 43.6089 17.9863 43.6207C17.7804 43.6468 17.5922 43.6906 17.4217 43.7521C17.2536 43.8137 17.1187 43.9025 17.0169 44.0185C16.9174 44.1321 16.8677 44.2836 16.8677 44.473C16.8677 44.7358 16.9648 44.9347 17.1589 45.0696C17.353 45.2022 17.6004 45.2685 17.9011 45.2685ZM24.3224 40.5455V41.3977H21.343V40.5455H24.3224ZM22.142 39.2386H23.2038V44.3984C23.2038 44.6044 23.2346 44.7595 23.2962 44.8636C23.3577 44.9654 23.437 45.0353 23.5341 45.0732C23.6335 45.1087 23.7412 45.1264 23.8572 45.1264C23.9425 45.1264 24.017 45.1205 24.081 45.1087C24.1449 45.0968 24.1946 45.0874 24.2301 45.0803L24.4219 45.9574C24.3603 45.9811 24.2727 46.0047 24.1591 46.0284C24.0455 46.0545 23.9034 46.0687 23.733 46.071C23.4536 46.0758 23.1932 46.026 22.9517 45.9219C22.7102 45.8177 22.5149 45.6567 22.3658 45.4389C22.2166 45.2211 22.142 44.9477 22.142 44.6186V39.2386ZM29.4964 41.8771L28.5341 42.0476C28.4938 41.9245 28.4299 41.8073 28.3423 41.696C28.2571 41.5848 28.1411 41.4936 27.9943 41.4226C27.8475 41.3516 27.6641 41.3161 27.4439 41.3161C27.1432 41.3161 26.8923 41.3835 26.6911 41.5185C26.4898 41.651 26.3892 41.8227 26.3892 42.0334C26.3892 42.2157 26.4567 42.3625 26.5916 42.4737C26.7266 42.585 26.9444 42.6761 27.245 42.7472L28.1115 42.946C28.6134 43.062 28.9875 43.2408 29.2337 43.4822C29.4799 43.7237 29.603 44.0374 29.603 44.4233C29.603 44.75 29.5083 45.0412 29.3189 45.2969C29.1319 45.5502 28.8703 45.7491 28.5341 45.8935C28.2003 46.0379 27.8132 46.1101 27.3729 46.1101C26.7621 46.1101 26.2637 45.9799 25.8778 45.7195C25.492 45.4567 25.2552 45.0838 25.1676 44.6009L26.1939 44.4446C26.2578 44.7121 26.3892 44.9145 26.5881 45.0518C26.7869 45.1868 27.0462 45.2543 27.3658 45.2543C27.7138 45.2543 27.992 45.1821 28.2003 45.0376C28.4086 44.8909 28.5128 44.7121 28.5128 44.5014C28.5128 44.331 28.4489 44.1877 28.321 44.0717C28.1955 43.9557 28.0026 43.8681 27.7422 43.8089L26.8189 43.6065C26.3099 43.4905 25.9335 43.3059 25.6896 43.0526C25.4482 42.7992 25.3274 42.4785 25.3274 42.0902C25.3274 41.7682 25.4174 41.4865 25.5973 41.245C25.7772 41.0036 26.0258 40.8153 26.343 40.6804C26.6603 40.5431 27.0237 40.4744 27.4332 40.4744C28.0227 40.4744 28.4867 40.6023 28.8253 40.858C29.1638 41.1113 29.3875 41.451 29.4964 41.8771Z" fill="white" fill-opacity="0.8"/>
<path d="M27 4.5H5C4.33696 4.5 3.70107 4.76339 3.23223 5.23223C2.76339 5.70107 2.5 6.33696 2.5 7V23C2.5 23.663 2.76339 24.2989 3.23223 24.7678C3.70107 25.2366 4.33696 25.5 5 25.5H12.1538L13.8562 28.2862C14.0779 28.6556 14.3911 28.9613 14.7657 29.174C15.1402 29.3866 15.5634 29.4988 15.9941 29.4999C16.4247 29.5009 16.8484 29.3906 17.2239 29.1797C17.5995 28.9688 17.9142 28.6645 18.1375 28.2962L19.8463 25.5H27C27.663 25.5 28.2989 25.2366 28.7678 24.7678C29.2366 24.2989 29.5 23.663 29.5 23V7C29.5 6.33696 29.2366 5.70107 28.7678 5.23223C28.2989 4.76339 27.663 4.5 27 4.5ZM26.5 22.5H19.5662C19.1366 22.5 18.7141 22.6108 18.3397 22.8217C17.9653 23.0325 17.6515 23.3363 17.4287 23.7038L16 26.0413L14.5737 23.7075C14.3503 23.3398 14.0361 23.0357 13.6614 22.8243C13.2867 22.6129 12.864 22.5012 12.4338 22.5H5.5V7.5H26.5V22.5Z" fill="white" fill-opacity="0.8"/>
<path d="M12.3671 25.3696L12.294 25.25H12.1538H5C4.40326 25.25 3.83097 25.0129 3.40901 24.591C2.98705 24.169 2.75 23.5967 2.75 23V7C2.75 6.40326 2.98705 5.83097 3.40901 5.40901C3.83097 4.98705 4.40326 4.75 5 4.75H27C27.5967 4.75 28.169 4.98705 28.591 5.40901C29.0129 5.83097 29.25 6.40326 29.25 7V23C29.25 23.5967 29.0129 24.169 28.591 24.591C28.169 25.0129 27.5967 25.25 27 25.25H19.8463H19.706L19.6329 25.3696L17.9242 28.1659L17.9237 28.1666C17.7227 28.498 17.4395 28.7719 17.1015 28.9617C16.7635 29.1515 16.3823 29.2508 15.9946 29.2499C15.607 29.2489 15.2262 29.1479 14.8891 28.9566C14.552 28.7652 14.2701 28.49 14.0706 28.1576L14.0696 28.1559L12.3671 25.3696ZM26.5 22.75H26.75V22.5V7.5V7.25H26.5H5.5H5.25V7.5V22.5V22.75H5.5L12.4331 22.75C12.4333 22.75 12.4335 22.75 12.4337 22.75C12.8209 22.7512 13.2013 22.8517 13.5386 23.042C13.876 23.2324 14.1589 23.5063 14.3601 23.8374L14.3604 23.8379L15.7867 26.1716L16 26.5206L16.2133 26.1716L17.6421 23.8341L17.6425 23.8334C17.843 23.5027 18.1254 23.2293 18.4624 23.0395C18.7993 22.8497 19.1795 22.75 19.5662 22.75H26.5Z" stroke="white" stroke-opacity="0.8" stroke-width="0.5"/>
</svg>
