<svg width="28" height="26" viewBox="0 0 28 26" fill="none" xmlns="http://www.w3.org/2000/svg">
<path d="M25 0.5H3C2.33696 0.5 1.70107 0.763392 1.23223 1.23223C0.763392 1.70107 0.5 2.33696 0.5 3V19C0.5 19.663 0.763392 20.2989 1.23223 20.7678C1.70107 21.2366 2.33696 21.5 3 21.5H10.1538L11.8562 24.2862C12.0779 24.6556 12.3911 24.9613 12.7657 25.174C13.1402 25.3866 13.5634 25.4988 13.9941 25.4999C14.4247 25.5009 14.8484 25.3906 15.2239 25.1797C15.5995 24.9688 15.9142 24.6645 16.1375 24.2962L17.8463 21.5H25C25.663 21.5 26.2989 21.2366 26.7678 20.7678C27.2366 20.2989 27.5 19.663 27.5 19V3C27.5 2.33696 27.2366 1.70107 26.7678 1.23223C26.2989 0.763392 25.663 0.5 25 0.5ZM24.5 18.5H17.5662C17.1366 18.5 16.7141 18.6108 16.3397 18.8217C15.9653 19.0325 15.6515 19.3363 15.4287 19.7038L14 22.0413L12.5737 19.7075C12.3503 19.3398 12.0361 19.0357 11.6614 18.8243C11.2867 18.6129 10.864 18.5012 10.4338 18.5H3.5V3.5H24.5V18.5Z" fill="white" fill-opacity="0.8"/>
<path d="M10.3671 21.3696L10.294 21.25H10.1538H3C2.40326 21.25 1.83097 21.0129 1.40901 20.591C0.987053 20.169 0.75 19.5967 0.75 19V3C0.75 2.40326 0.987053 1.83097 1.40901 1.40901C1.83097 0.987053 2.40326 0.75 3 0.75H25C25.5967 0.75 26.169 0.987053 26.591 1.40901C27.0129 1.83097 27.25 2.40326 27.25 3V19C27.25 19.5967 27.0129 20.169 26.591 20.591C26.169 21.0129 25.5967 21.25 25 21.25H17.8463H17.706L17.6329 21.3696L15.9242 24.1659L15.9237 24.1666C15.7227 24.498 15.4395 24.7719 15.1015 24.9617C14.7635 25.1515 14.3823 25.2508 13.9946 25.2499C13.607 25.2489 13.2262 25.1479 12.8891 24.9566C12.552 24.7652 12.2701 24.49 12.0706 24.1576L12.0696 24.1559L10.3671 21.3696ZM24.5 18.75H24.75V18.5V3.5V3.25H24.5H3.5H3.25V3.5V18.5V18.75H3.5L10.4331 18.75C10.4333 18.75 10.4335 18.75 10.4337 18.75C10.8209 18.7512 11.2013 18.8517 11.5386 19.042C11.876 19.2324 12.1589 19.5063 12.3601 19.8374L12.3604 19.8379L13.7867 22.1716L14 22.5206L14.2133 22.1716L15.6421 19.8341L15.6425 19.8334C15.843 19.5027 16.1254 19.2293 16.4624 19.0395C16.7993 18.8497 17.1795 18.75 17.5662 18.75H24.5Z" stroke="white" stroke-opacity="0.8" stroke-width="0.5"/>
</svg>
