<svg width="23" height="26" viewBox="0 0 23 26" fill="none" xmlns="http://www.w3.org/2000/svg">
<path d="M0 10.5073C0 9.23781 0.405167 8.10335 1.202 7.10393C1.99883 6.10452 3.01174 5.46976 4.24075 5.19965C4.57839 3.68702 5.34821 2.431 6.56371 1.4586C7.77921 0.486201 9.15678 0 10.7234 0C12.2361 0 13.6001 0.472695 14.8021 1.41809C16.0041 2.36348 16.7739 3.57898 17.1386 5.05109H17.5032C19.0159 5.05109 20.3124 5.5778 21.3928 6.64474C22.4598 7.69818 23 8.99472 23 10.4938C23 11.3042 22.8379 12.074 22.5003 12.7898C22.1627 13.5056 21.7035 14.1268 21.1092 14.64V14.6806C21.1092 15.4774 20.8526 16.1932 20.3529 16.8279C19.8532 17.4627 19.2184 17.8544 18.4621 18.0299C18.273 18.8673 17.8544 19.5831 17.2331 20.1638C16.6119 20.7446 15.8691 21.1092 15.0317 21.2443C15.4234 21.7035 15.6124 22.2167 15.6124 22.7704C15.6124 23.4187 15.3829 23.9724 14.9237 24.4451C14.4645 24.9043 13.9107 25.1474 13.2625 25.1474C12.6142 25.1474 12.0605 24.9178 11.6013 24.4451C11.1421 23.9859 10.9125 23.4187 10.9125 22.7704C10.9125 22.5138 10.953 22.2572 11.0476 22.0006H10.9125C10.1292 22.0006 9.4539 21.717 8.88667 21.1497C8.31944 20.5825 8.03582 19.9072 8.03582 19.1239C8.03582 18.5837 8.17087 18.0975 8.44099 17.6788C7.7387 17.2871 7.23899 16.7334 6.92836 15.9906H5.19965V15.9771C3.75455 15.8826 2.52554 15.3153 1.51262 14.2619C0.499706 13.2085 0 11.9659 0 10.5073ZM1.89078 10.1697C1.89078 11.2501 2.26894 12.1685 3.02525 12.9248C3.78156 13.6812 4.69994 14.0593 5.76688 14.0593C6.42865 14.0593 7.04991 13.9107 7.61715 13.6001C7.77921 14.5995 8.25191 15.4369 9.02173 16.1122C9.79154 16.7874 10.7099 17.1116 11.7499 17.1116C12.9248 17.1116 13.9243 16.6929 14.7481 15.8691C15.3018 16.5173 15.9906 16.8279 16.8279 16.8279C17.5978 16.8279 18.246 16.5578 18.7998 16.0176C19.34 15.4774 19.6101 14.8156 19.6101 14.0458C20.1503 13.6812 20.5825 13.222 20.8931 12.6412C21.2038 12.074 21.3658 11.4527 21.3658 10.791C21.3658 9.72402 20.9877 8.80564 20.2178 8.06283C19.448 7.32002 18.5297 6.94187 17.4492 6.94187C16.6929 6.94187 16.0041 7.14445 15.3829 7.53611C15.4639 7.21198 15.4909 6.84733 15.4909 6.46917C15.4909 5.17264 15.0317 4.06518 14.0998 3.1468C13.1679 2.22842 12.047 1.78274 10.7369 1.78274C9.46741 1.78274 8.37346 2.22842 7.45508 3.09278C6.5367 3.95713 6.0505 5.03758 6.00998 6.2936H5.78039C4.71345 6.2936 3.80857 6.67176 3.03875 7.42807C2.26894 8.18438 1.89078 9.11627 1.89078 10.1697Z" fill="#545454"/>
</svg>
