<svg width="32" height="32" viewBox="0 0 32 32" fill="none" xmlns="http://www.w3.org/2000/svg">
<path d="M7.66667 7.33337C7.66667 6.71454 7.9125 6.12104 8.35009 5.68346C8.78767 5.24587 9.38117 5.00004 10 5.00004C10.6188 5.00004 11.2123 5.24587 11.6499 5.68346C12.0875 6.12104 12.3333 6.71454 12.3333 7.33337C12.3333 7.95221 12.0875 8.5457 11.6499 8.98329C11.2123 9.42087 10.6188 9.66671 10 9.66671C9.38117 9.66671 8.78767 9.42087 8.35009 8.98329C7.9125 8.5457 7.66667 7.95221 7.66667 7.33337ZM10 3.33337C9.47472 3.33337 8.95457 3.43684 8.46927 3.63786C7.98397 3.83887 7.54301 4.13351 7.17158 4.50495C6.80014 4.87638 6.50551 5.31734 6.30449 5.80264C6.10347 6.28794 6.00001 6.80809 6 7.33337C6.00001 7.85866 6.10347 8.37881 6.30449 8.86411C6.50551 9.34941 6.80014 9.79037 7.17158 10.1618C7.54301 10.5332 7.98397 10.8279 8.46927 11.0289C8.95457 11.2299 9.47472 11.3334 10 11.3334C11.0609 11.3334 12.0783 10.9119 12.8284 10.1618C13.5786 9.41166 14 8.39424 14 7.33337C14 6.27251 13.5786 5.25509 12.8284 4.50495C12.0783 3.7548 11.0609 3.33337 10 3.33337ZM19.6667 7.33337C19.6667 6.71454 19.9125 6.12104 20.3501 5.68346C20.7877 5.24587 21.3812 5.00004 22 5.00004C22.6188 5.00004 23.2123 5.24587 23.6499 5.68346C24.0875 6.12104 24.3333 6.71454 24.3333 7.33337C24.3333 7.95221 24.0875 8.5457 23.6499 8.98329C23.2123 9.42087 22.6188 9.66671 22 9.66671C21.3812 9.66671 20.7877 9.42087 20.3501 8.98329C19.9125 8.5457 19.6667 7.95221 19.6667 7.33337ZM22 3.33337C21.4747 3.33337 20.9546 3.43684 20.4693 3.63786C19.984 3.83887 19.543 4.13351 19.1716 4.50495C18.8001 4.87638 18.5055 5.31734 18.3045 5.80264C18.1035 6.28794 18 6.80809 18 7.33337C18 7.85866 18.1035 8.37881 18.3045 8.86411C18.5055 9.34941 18.8001 9.79037 19.1716 10.1618C19.543 10.5332 19.984 10.8279 20.4693 11.0289C20.9546 11.2299 21.4747 11.3334 22 11.3334C23.0609 11.3334 24.0783 10.9119 24.8284 10.1618C25.5786 9.41166 26 8.39424 26 7.33337C26 6.27251 25.5786 5.25509 24.8284 4.50495C24.0783 3.7548 23.0609 3.33337 22 3.33337ZM2.66667 14.964C2.66667 14.6624 2.72609 14.3636 2.84155 14.0849C2.957 13.8062 3.12622 13.5529 3.33955 13.3396C3.55287 13.1263 3.80613 12.957 4.08485 12.8416C4.36358 12.7261 4.66231 12.6667 4.964 12.6667H11.38C11.0809 13.1834 10.8713 13.7469 10.76 14.3334H4.964C4.88118 14.3334 4.79918 14.3497 4.72266 14.3814C4.64614 14.4131 4.57662 14.4595 4.51806 14.5181C4.45949 14.5767 4.41304 14.6462 4.38135 14.7227C4.34965 14.7992 4.33334 14.8812 4.33334 14.964V15.25C4.33334 15.43 4.33534 16.5387 5.01267 17.5867C5.61 18.512 6.828 19.5334 9.46867 19.6547C8.78084 19.9666 8.20685 20.4845 7.826 21.1367C5.67801 20.7154 4.37267 19.668 3.61267 18.4914C2.66667 17.0267 2.66667 15.5134 2.66667 15.2514V14.9647V14.964ZM22.5313 19.6547C23.2192 19.9666 23.7932 20.4845 24.174 21.1367C26.322 20.7154 27.6273 19.668 28.3873 18.4914C29.3333 17.0267 29.3333 15.5134 29.3333 15.2514V14.9647C29.3334 14.663 29.2741 14.3642 29.1587 14.0854C29.0432 13.8065 28.874 13.5532 28.6607 13.3398C28.4474 13.1264 28.1941 12.9571 27.9153 12.8416C27.6365 12.7262 27.3377 12.6667 27.036 12.6667H20.62C20.9133 13.1754 21.1267 13.7367 21.24 14.3334H27.036C27.384 14.3334 27.6667 14.616 27.6667 14.964V15.25C27.6667 15.43 27.6647 16.5387 26.9873 17.5867C26.39 18.512 25.172 19.5334 22.5313 19.6547ZM16 13C15.3812 13 14.7877 13.2459 14.3501 13.6835C13.9125 14.121 13.6667 14.7145 13.6667 15.3334C13.6667 15.9522 13.9125 16.5457 14.3501 16.9833C14.7877 17.4209 15.3812 17.6667 16 17.6667C16.6188 17.6667 17.2123 17.4209 17.6499 16.9833C18.0875 16.5457 18.3333 15.9522 18.3333 15.3334C18.3333 14.7145 18.0875 14.121 17.6499 13.6835C17.2123 13.2459 16.6188 13 16 13ZM12 15.3334C12 14.2725 12.4214 13.2551 13.1716 12.5049C13.9217 11.7548 14.9391 11.3334 16 11.3334C17.0609 11.3334 18.0783 11.7548 18.8284 12.5049C19.5786 13.2551 20 14.2725 20 15.3334C20 16.3942 19.5786 17.4117 18.8284 18.1618C18.0783 18.9119 17.0609 19.3334 16 19.3334C14.9391 19.3334 13.9217 18.9119 13.1716 18.1618C12.4214 17.4117 12 16.3942 12 15.3334ZM8.66667 22.964C8.66667 22.3547 8.90871 21.7704 9.33954 21.3396C9.77038 20.9087 10.3547 20.6667 10.964 20.6667H21.036C21.6453 20.6667 22.2296 20.9087 22.6605 21.3396C23.0913 21.7704 23.3333 22.3547 23.3333 22.964V23.2514C23.3333 23.514 23.3333 25.0267 22.3873 26.4914C21.3987 28.022 19.4887 29.3334 16 29.3334C12.5113 29.3334 10.6013 28.022 9.61267 26.4914C8.66667 25.0267 8.66667 23.5134 8.66667 23.2514V22.964ZM10.964 22.3334C10.7967 22.3334 10.6363 22.3998 10.5181 22.5181C10.3998 22.6364 10.3333 22.7968 10.3333 22.964V23.25C10.3333 23.43 10.3353 24.5387 11.0127 25.5867C11.6487 26.572 12.9887 27.6667 16 27.6667C19.0113 27.6667 20.3513 26.572 20.9873 25.5867C21.6647 24.5387 21.6667 23.43 21.6667 23.25V22.964C21.6667 22.7968 21.6002 22.6364 21.482 22.5181C21.3637 22.3998 21.2033 22.3334 21.036 22.3334H10.964Z" fill="#E0E9E3"/>
</svg>
