<svg width="57" height="47" viewBox="0 0 57 47" fill="none" xmlns="http://www.w3.org/2000/svg">
<path d="M20.6667 7.33325C20.6667 6.71441 20.9125 6.12092 21.3501 5.68334C21.7877 5.24575 22.3812 4.99992 23 4.99992C23.6188 4.99992 24.2123 5.24575 24.6499 5.68334C25.0875 6.12092 25.3333 6.71441 25.3333 7.33325C25.3333 7.95209 25.0875 8.54558 24.6499 8.98317C24.2123 9.42075 23.6188 9.66659 23 9.66659C22.3812 9.66659 21.7877 9.42075 21.3501 8.98317C20.9125 8.54558 20.6667 7.95209 20.6667 7.33325ZM23 3.33325C22.4747 3.33325 21.9546 3.43671 21.4693 3.63773C20.984 3.83875 20.543 4.13339 20.1716 4.50482C19.8001 4.87626 19.5055 5.31722 19.3045 5.80252C19.1035 6.28782 19 6.80796 19 7.33325C19 7.85854 19.1035 8.37868 19.3045 8.86399C19.5055 9.34929 19.8001 9.79024 20.1716 10.1617C20.543 10.5331 20.984 10.8278 21.4693 11.0288C21.9546 11.2298 22.4747 11.3333 23 11.3333C24.0609 11.3333 25.0783 10.9118 25.8284 10.1617C26.5786 9.41153 27 8.39412 27 7.33325C27 6.27239 26.5786 5.25497 25.8284 4.50482C25.0783 3.75468 24.0609 3.33325 23 3.33325ZM32.6667 7.33325C32.6667 6.71441 32.9125 6.12092 33.3501 5.68334C33.7877 5.24575 34.3812 4.99992 35 4.99992C35.6188 4.99992 36.2123 5.24575 36.6499 5.68334C37.0875 6.12092 37.3333 6.71441 37.3333 7.33325C37.3333 7.95209 37.0875 8.54558 36.6499 8.98317C36.2123 9.42075 35.6188 9.66659 35 9.66659C34.3812 9.66659 33.7877 9.42075 33.3501 8.98317C32.9125 8.54558 32.6667 7.95209 32.6667 7.33325ZM35 3.33325C34.4747 3.33325 33.9546 3.43671 33.4693 3.63773C32.984 3.83875 32.543 4.13339 32.1716 4.50482C31.8001 4.87626 31.5055 5.31722 31.3045 5.80252C31.1035 6.28782 31 6.80796 31 7.33325C31 7.85854 31.1035 8.37868 31.3045 8.86399C31.5055 9.34929 31.8001 9.79024 32.1716 10.1617C32.543 10.5331 32.984 10.8278 33.4693 11.0288C33.9546 11.2298 34.4747 11.3333 35 11.3333C36.0609 11.3333 37.0783 10.9118 37.8284 10.1617C38.5786 9.41153 39 8.39412 39 7.33325C39 6.27239 38.5786 5.25497 37.8284 4.50482C37.0783 3.75468 36.0609 3.33325 35 3.33325ZM15.6667 14.9639C15.6667 14.6622 15.7261 14.3635 15.8415 14.0848C15.957 13.806 16.1262 13.5528 16.3395 13.3395C16.5529 13.1261 16.8061 12.9569 17.0848 12.8415C17.3636 12.726 17.6623 12.6666 17.964 12.6666H24.38C24.0809 13.1832 23.8713 13.7467 23.76 14.3333H17.964C17.8812 14.3333 17.7992 14.3496 17.7226 14.3813C17.6461 14.413 17.5766 14.4594 17.518 14.518C17.4595 14.5765 17.413 14.6461 17.3813 14.7226C17.3496 14.7991 17.3333 14.8811 17.3333 14.9639V15.2499C17.3333 15.4299 17.3353 16.5386 18.0127 17.5866C18.61 18.5119 19.828 19.5333 22.4687 19.6546C21.7808 19.9665 21.2068 20.4844 20.826 21.1366C18.678 20.7153 17.3727 19.6679 16.6127 18.4913C15.6667 17.0266 15.6667 15.5133 15.6667 15.2513V14.9646V14.9639ZM35.5313 19.6546C36.2192 19.9665 36.7931 20.4844 37.174 21.1366C39.322 20.7153 40.6273 19.6679 41.3873 18.4913C42.3333 17.0266 42.3333 15.5133 42.3333 15.2513V14.9646C42.3334 14.6628 42.2741 14.364 42.1586 14.0852C42.0432 13.8064 41.874 13.5531 41.6607 13.3397C41.4473 13.1263 41.1941 12.957 40.9153 12.8415C40.6365 12.726 40.3377 12.6666 40.036 12.6666H33.62C33.9133 13.1753 34.1267 13.7366 34.24 14.3333H40.036C40.384 14.3333 40.6667 14.6159 40.6667 14.9639V15.2499C40.6667 15.4299 40.6647 16.5386 39.9873 17.5866C39.39 18.5119 38.172 19.5333 35.5313 19.6546ZM29 12.9999C28.3812 12.9999 27.7877 13.2458 27.3501 13.6833C26.9125 14.1209 26.6667 14.7144 26.6667 15.3333C26.6667 15.9521 26.9125 16.5456 27.3501 16.9832C27.7877 17.4208 28.3812 17.6666 29 17.6666C29.6188 17.6666 30.2123 17.4208 30.6499 16.9832C31.0875 16.5456 31.3333 15.9521 31.3333 15.3333C31.3333 14.7144 31.0875 14.1209 30.6499 13.6833C30.2123 13.2458 29.6188 12.9999 29 12.9999ZM25 15.3333C25 14.2724 25.4214 13.255 26.1716 12.5048C26.9217 11.7547 27.9391 11.3333 29 11.3333C30.0609 11.3333 31.0783 11.7547 31.8284 12.5048C32.5786 13.255 33 14.2724 33 15.3333C33 16.3941 32.5786 17.4115 31.8284 18.1617C31.0783 18.9118 30.0609 19.3333 29 19.3333C27.9391 19.3333 26.9217 18.9118 26.1716 18.1617C25.4214 17.4115 25 16.3941 25 15.3333ZM21.6667 22.9639C21.6667 22.3546 21.9087 21.7703 22.3395 21.3395C22.7704 20.9086 23.3547 20.6666 23.964 20.6666H34.036C34.6453 20.6666 35.2296 20.9086 35.6604 21.3395C36.0913 21.7703 36.3333 22.3546 36.3333 22.9639V23.2513C36.3333 23.5139 36.3333 25.0266 35.3873 26.4913C34.3987 28.0219 32.4887 29.3333 29 29.3333C25.5113 29.3333 23.6013 28.0219 22.6127 26.4913C21.6667 25.0266 21.6667 23.5133 21.6667 23.2513V22.9639ZM23.964 22.3333C23.7967 22.3333 23.6363 22.3997 23.518 22.518C23.3998 22.6362 23.3333 22.7967 23.3333 22.9639V23.2499C23.3333 23.4299 23.3353 24.5386 24.0127 25.5866C24.6487 26.5719 25.9887 27.6666 29 27.6666C32.0113 27.6666 33.3513 26.5719 33.9873 25.5866C34.6647 24.5386 34.6667 23.4299 34.6667 23.2499V22.9639C34.6667 22.7967 34.6002 22.6362 34.4819 22.518C34.3637 22.3997 34.2033 22.3333 34.036 22.3333H23.964Z" fill="#E0E9E3"/>
<path d="M6.83949 39.0923H5.73153C5.68892 38.8556 5.60961 38.6473 5.49361 38.4673C5.3776 38.2874 5.23556 38.1347 5.06747 38.0092C4.89938 37.8838 4.71117 37.7891 4.50284 37.7251C4.29688 37.6612 4.07789 37.6293 3.84588 37.6293C3.42685 37.6293 3.05161 37.7346 2.72017 37.9453C2.3911 38.156 2.13068 38.465 1.93892 38.8722C1.74953 39.2794 1.65483 39.7765 1.65483 40.3636C1.65483 40.9555 1.74953 41.455 1.93892 41.8622C2.13068 42.2694 2.39228 42.5772 2.72372 42.7855C3.05516 42.9938 3.42803 43.098 3.84233 43.098C4.07197 43.098 4.28977 43.0672 4.49574 43.0057C4.70407 42.9418 4.89228 42.8482 5.06037 42.7251C5.22846 42.602 5.3705 42.4517 5.48651 42.2741C5.60488 42.0942 5.68655 41.8883 5.73153 41.6562L6.83949 41.6598C6.7803 42.0173 6.66548 42.3464 6.49503 42.647C6.32694 42.9453 6.11032 43.2034 5.84517 43.4212C5.58239 43.6366 5.28172 43.8035 4.94318 43.9219C4.60464 44.0402 4.23532 44.0994 3.83523 44.0994C3.20549 44.0994 2.64441 43.9503 2.15199 43.652C1.65956 43.3513 1.27131 42.9216 0.987216 42.3629C0.705492 41.8042 0.564631 41.1378 0.564631 40.3636C0.564631 39.5871 0.706676 38.9207 0.990767 38.3643C1.27486 37.8056 1.66312 37.3771 2.15554 37.0788C2.64796 36.7782 3.20786 36.6278 3.83523 36.6278C4.22112 36.6278 4.58097 36.6835 4.91477 36.7947C5.25095 36.9036 5.55279 37.0646 5.82031 37.2777C6.08783 37.4884 6.30919 37.7464 6.48438 38.0518C6.65956 38.3549 6.77794 38.7017 6.83949 39.0923ZM10.3649 44.1101C9.85352 44.1101 9.40726 43.9929 9.0261 43.7585C8.64495 43.5241 8.34902 43.1963 8.13832 42.7749C7.92762 42.3535 7.82227 41.861 7.82227 41.2976C7.82227 40.7318 7.92762 40.237 8.13832 39.8132C8.34902 39.3894 8.64495 39.0604 9.0261 38.826C9.40726 38.5916 9.85352 38.4744 10.3649 38.4744C10.8762 38.4744 11.3225 38.5916 11.7037 38.826C12.0848 39.0604 12.3807 39.3894 12.5914 39.8132C12.8021 40.237 12.9075 40.7318 12.9075 41.2976C12.9075 41.861 12.8021 42.3535 12.5914 42.7749C12.3807 43.1963 12.0848 43.5241 11.7037 43.7585C11.3225 43.9929 10.8762 44.1101 10.3649 44.1101ZM10.3684 43.2188C10.6999 43.2188 10.9745 43.1312 11.1923 42.956C11.4101 42.7808 11.5711 42.5476 11.6752 42.2564C11.7818 41.9652 11.835 41.6444 11.835 41.294C11.835 40.946 11.7818 40.6264 11.6752 40.3352C11.5711 40.0417 11.4101 39.8061 11.1923 39.6286C10.9745 39.451 10.6999 39.3622 10.3684 39.3622C10.0346 39.3622 9.75764 39.451 9.53746 39.6286C9.31966 39.8061 9.15749 40.0417 9.05096 40.3352C8.94679 40.6264 8.89471 40.946 8.89471 41.294C8.89471 41.6444 8.94679 41.9652 9.05096 42.2564C9.15749 42.5476 9.31966 42.7808 9.53746 42.956C9.75764 43.1312 10.0346 43.2188 10.3684 43.2188ZM14.0927 44V38.5455H15.1119V39.4332H15.1793C15.293 39.1326 15.4788 38.8982 15.7369 38.7301C15.9949 38.5597 16.3039 38.4744 16.6637 38.4744C17.0283 38.4744 17.3337 38.5597 17.5799 38.7301C17.8285 38.9006 18.012 39.1349 18.1303 39.4332H18.1871C18.3174 39.142 18.5245 38.91 18.8086 38.7372C19.0927 38.562 19.4312 38.4744 19.8242 38.4744C20.319 38.4744 20.7227 38.6295 21.0352 38.9396C21.35 39.2498 21.5075 39.7173 21.5075 40.3423V44H20.4457V40.4418C20.4457 40.0724 20.3451 39.8049 20.1438 39.6392C19.9426 39.4735 19.7023 39.3906 19.4229 39.3906C19.0773 39.3906 18.8086 39.4972 18.6168 39.7102C18.4251 39.9209 18.3292 40.192 18.3292 40.5234V44H17.271V40.3743C17.271 40.0784 17.1786 39.8404 16.994 39.6605C16.8093 39.4806 16.569 39.3906 16.2731 39.3906C16.0719 39.3906 15.886 39.4439 15.7156 39.5504C15.5475 39.6546 15.4113 39.8002 15.3072 39.9872C15.2054 40.1742 15.1545 40.3909 15.1545 40.6371V44H14.0927ZM22.9306 44V38.5455H23.9498V39.4332H24.0172C24.1309 39.1326 24.3167 38.8982 24.5748 38.7301C24.8328 38.5597 25.1417 38.4744 25.5016 38.4744C25.8662 38.4744 26.1716 38.5597 26.4178 38.7301C26.6664 38.9006 26.8498 39.1349 26.9682 39.4332H27.025C27.1552 39.142 27.3624 38.91 27.6465 38.7372C27.9306 38.562 28.2691 38.4744 28.6621 38.4744C29.1569 38.4744 29.5605 38.6295 29.873 38.9396C30.1879 39.2498 30.3453 39.7173 30.3453 40.3423V44H29.2836V40.4418C29.2836 40.0724 29.1829 39.8049 28.9817 39.6392C28.7805 39.4735 28.5402 39.3906 28.2608 39.3906C27.9152 39.3906 27.6465 39.4972 27.4547 39.7102C27.263 39.9209 27.1671 40.192 27.1671 40.5234V44H26.1088V40.3743C26.1088 40.0784 26.0165 39.8404 25.8319 39.6605C25.6472 39.4806 25.4069 39.3906 25.111 39.3906C24.9097 39.3906 24.7239 39.4439 24.5534 39.5504C24.3854 39.6546 24.2492 39.8002 24.1451 39.9872C24.0433 40.1742 23.9924 40.3909 23.9924 40.6371V44H22.9306ZM35.2237 41.7379V38.5455H36.2891V44H35.245V43.0554H35.1882C35.0627 43.3466 34.8615 43.5893 34.5845 43.7834C34.3099 43.9751 33.9678 44.071 33.5582 44.071C33.2079 44.071 32.8977 43.9941 32.6278 43.8402C32.3603 43.6839 32.1496 43.4531 31.9957 43.1477C31.8442 42.8423 31.7685 42.4647 31.7685 42.0149V38.5455H32.8303V41.8871C32.8303 42.2588 32.9332 42.5547 33.1392 42.7749C33.3452 42.995 33.6127 43.1051 33.9418 43.1051C34.1406 43.1051 34.3383 43.0554 34.5348 42.956C34.7337 42.8565 34.8982 42.7062 35.0284 42.505C35.161 42.3037 35.2261 42.0481 35.2237 41.7379ZM38.7775 40.7614V44H37.7157V38.5455H38.7349V39.4332H38.8024C38.9279 39.1444 39.1243 38.9124 39.3919 38.7372C39.6618 38.562 40.0015 38.4744 40.411 38.4744C40.7827 38.4744 41.1083 38.5526 41.3876 38.7088C41.667 38.8627 41.8836 39.0923 42.0375 39.3977C42.1913 39.7031 42.2683 40.0807 42.2683 40.5305V44H41.2065V40.6584C41.2065 40.263 41.1035 39.9541 40.8975 39.7315C40.6916 39.5066 40.4087 39.3942 40.0488 39.3942C39.8026 39.3942 39.5836 39.4474 39.3919 39.554C39.2025 39.6605 39.0521 39.8168 38.9409 40.0227C38.832 40.2263 38.7775 40.4725 38.7775 40.7614ZM43.6923 44V38.5455H44.7541V44H43.6923ZM44.2285 37.7038C44.0439 37.7038 43.8852 37.6423 43.7527 37.5192C43.6225 37.3937 43.5574 37.2446 43.5574 37.0717C43.5574 36.8965 43.6225 36.7474 43.7527 36.6243C43.8852 36.4988 44.0439 36.4361 44.2285 36.4361C44.4132 36.4361 44.5706 36.4988 44.7008 36.6243C44.8334 36.7474 44.8997 36.8965 44.8997 37.0717C44.8997 37.2446 44.8334 37.3937 44.7008 37.5192C44.5706 37.6423 44.4132 37.7038 44.2285 37.7038ZM48.7287 38.5455V39.3977H45.7493V38.5455H48.7287ZM46.5483 37.2386H47.6101V42.3984C47.6101 42.6044 47.6409 42.7595 47.7024 42.8636C47.764 42.9654 47.8433 43.0353 47.9403 43.0732C48.0398 43.1087 48.1475 43.1264 48.2635 43.1264C48.3487 43.1264 48.4233 43.1205 48.4872 43.1087C48.5511 43.0968 48.6009 43.0874 48.6364 43.0803L48.8281 43.9574C48.7666 43.9811 48.679 44.0047 48.5653 44.0284C48.4517 44.0545 48.3097 44.0687 48.1392 44.071C47.8598 44.0758 47.5994 44.026 47.358 43.9219C47.1165 43.8177 46.9212 43.6567 46.772 43.4389C46.6229 43.2211 46.5483 42.9477 46.5483 42.6186V37.2386ZM50.5744 46.0455C50.4158 46.0455 50.2714 46.0324 50.1412 46.0064C50.0109 45.9827 49.9139 45.9567 49.85 45.9283L50.1056 45.0582C50.2998 45.1103 50.4726 45.1328 50.6241 45.1257C50.7756 45.1186 50.9094 45.0618 51.0254 44.9553C51.1438 44.8487 51.2479 44.6747 51.3379 44.4332L51.4693 44.071L49.4735 38.5455H50.6099L51.9913 42.7784H52.0481L53.4295 38.5455H54.5694L52.3216 44.728C52.2174 45.0121 52.0848 45.2524 51.9238 45.4489C51.7628 45.6477 51.5711 45.7969 51.3485 45.8963C51.126 45.9957 50.868 46.0455 50.5744 46.0455Z" fill="white" fill-opacity="0.8"/>
</svg>
