<svg width="26" height="23" viewBox="0 0 26 23" fill="none" xmlns="http://www.w3.org/2000/svg">
<path d="M10.3333 21.1949V14.5282H15.6667V21.1949C15.6667 21.9282 16.2667 22.5282 17 22.5282H21C21.7333 22.5282 22.3333 21.9282 22.3333 21.1949V11.8615H24.6C25.2133 11.8615 25.5067 11.1015 25.04 10.7015L13.8933 0.661533C13.3867 0.2082 12.6133 0.2082 12.1067 0.661533L0.960001 10.7015C0.506668 11.1015 0.786668 11.8615 1.4 11.8615H3.66667V21.1949C3.66667 21.9282 4.26667 22.5282 5 22.5282H9C9.73333 22.5282 10.3333 21.9282 10.3333 21.1949Z" fill="white"/>
<path d="M10.3333 13.5282H9.33333V14.5282V21.1949C9.33333 21.3759 9.18105 21.5282 9 21.5282H5C4.81895 21.5282 4.66667 21.3759 4.66667 21.1949V11.8615V10.8615H3.66667H2.27656L12.7735 1.40677C12.7737 1.40653 12.774 1.40629 12.7743 1.40605C12.9011 1.29336 13.0989 1.29336 13.2257 1.40605C13.226 1.40629 13.2263 1.40653 13.2265 1.40677L23.7234 10.8615H22.3333H21.3333V11.8615V21.1949C21.3333 21.3759 21.181 21.5282 21 21.5282H17C16.819 21.5282 16.6667 21.3759 16.6667 21.1949V14.5282V13.5282H15.6667H10.3333Z" stroke="white" stroke-opacity="0.8" stroke-width="2"/>
</svg>
