<svg width="51" height="46" viewBox="0 0 51 46" fill="none" xmlns="http://www.w3.org/2000/svg">
<path d="M22.3333 24.0118V17.3451H27.6667V24.0118C27.6667 24.7451 28.2667 25.3451 29 25.3451H33C33.7333 25.3451 34.3333 24.7451 34.3333 24.0118V14.6784H36.6C37.2133 14.6784 37.5067 13.9184 37.04 13.5184L25.8933 3.47843C25.3867 3.02509 24.6133 3.02509 24.1067 3.47843L12.96 13.5184C12.5067 13.9184 12.7867 14.6784 13.4 14.6784H15.6667V24.0118C15.6667 24.7451 16.2667 25.3451 17 25.3451H21C21.7333 25.3451 22.3333 24.7451 22.3333 24.0118Z" fill="white"/>
<path d="M22.3333 16.3451H21.3333V17.3451V24.0118C21.3333 24.1928 21.181 24.3451 21 24.3451H17C16.819 24.3451 16.6667 24.1928 16.6667 24.0118V14.6784V13.6784H15.6667H14.2766L24.7735 4.22367C24.7738 4.22341 24.774 4.22315 24.7743 4.22289C24.9011 4.11028 25.0989 4.11028 25.2257 4.22289C25.226 4.22315 25.2262 4.22341 25.2265 4.22367L35.7234 13.6784H34.3333H33.3333V14.6784V24.0118C33.3333 24.1928 33.181 24.3451 33 24.3451H29C28.819 24.3451 28.6667 24.1928 28.6667 24.0118V17.3451V16.3451H27.6667H22.3333Z" stroke="white" stroke-opacity="0.8" stroke-width="2"/>
<path d="M11.799 41.8169V34.5442H12.8963V37.7047H16.522V34.5442H17.6229V41.8169H16.522V38.6457H12.8963V41.8169H11.799ZM21.4332 41.927C20.9219 41.927 20.4756 41.8098 20.0945 41.5754C19.7133 41.341 19.4174 41.0132 19.2067 40.5918C18.996 40.1704 18.8906 39.6779 18.8906 39.1145C18.8906 38.5487 18.996 38.0539 19.2067 37.6301C19.4174 37.2063 19.7133 36.8773 20.0945 36.6429C20.4756 36.4085 20.9219 36.2913 21.4332 36.2913C21.9446 36.2913 22.3909 36.4085 22.772 36.6429C23.1532 36.8773 23.4491 37.2063 23.6598 37.6301C23.8705 38.0539 23.9759 38.5487 23.9759 39.1145C23.9759 39.6779 23.8705 40.1704 23.6598 40.5918C23.4491 41.0132 23.1532 41.341 22.772 41.5754C22.3909 41.8098 21.9446 41.927 21.4332 41.927ZM21.4368 41.0356C21.7682 41.0356 22.0429 40.948 22.2607 40.7729C22.4785 40.5977 22.6394 40.3645 22.7436 40.0733C22.8501 39.7821 22.9034 39.4613 22.9034 39.1109C22.9034 38.7629 22.8501 38.4433 22.7436 38.1521C22.6394 37.8586 22.4785 37.623 22.2607 37.4454C22.0429 37.2679 21.7682 37.1791 21.4368 37.1791C21.103 37.1791 20.826 37.2679 20.6058 37.4454C20.388 37.623 20.2259 37.8586 20.1193 38.1521C20.0152 38.4433 19.9631 38.7629 19.9631 39.1109C19.9631 39.4613 20.0152 39.7821 20.1193 40.0733C20.2259 40.3645 20.388 40.5977 20.6058 40.7729C20.826 40.948 21.103 41.0356 21.4368 41.0356ZM25.161 41.8169V36.3623H26.1802V37.2501H26.2477C26.3613 36.9495 26.5472 36.7151 26.8052 36.547C27.0633 36.3766 27.3722 36.2913 27.7321 36.2913C28.0967 36.2913 28.402 36.3766 28.6483 36.547C28.8968 36.7175 29.0803 36.9518 29.1987 37.2501H29.2555C29.3857 36.9589 29.5929 36.7269 29.877 36.5541C30.161 36.3789 30.4996 36.2913 30.8926 36.2913C31.3874 36.2913 31.791 36.4464 32.1035 36.7565C32.4184 37.0667 32.5758 37.5342 32.5758 38.1592V41.8169H31.514V38.2587C31.514 37.8893 31.4134 37.6218 31.2122 37.4561C31.0109 37.2904 30.7707 37.2075 30.4913 37.2075C30.1457 37.2075 29.877 37.3141 29.6852 37.5271C29.4934 37.7378 29.3975 38.0089 29.3975 38.3403V41.8169H28.3393V38.1912C28.3393 37.8953 28.247 37.6573 28.0623 37.4774C27.8777 37.2975 27.6374 37.2075 27.3414 37.2075C27.1402 37.2075 26.9544 37.2608 26.7839 37.3673C26.6158 37.4715 26.4797 37.6171 26.3755 37.8041C26.2737 37.9911 26.2228 38.2078 26.2228 38.454V41.8169H25.161ZM36.3498 41.927C35.8124 41.927 35.3496 41.8122 34.9613 41.5825C34.5754 41.3505 34.2771 41.025 34.0664 40.606C33.8581 40.1846 33.7539 39.6909 33.7539 39.1251C33.7539 38.5664 33.8581 38.074 34.0664 37.6479C34.2771 37.2217 34.5707 36.8891 34.9471 36.65C35.3259 36.4109 35.7686 36.2913 36.2752 36.2913C36.583 36.2913 36.8813 36.3422 37.1701 36.444C37.4589 36.5458 37.7182 36.7056 37.9478 36.9234C38.1774 37.1412 38.3585 37.4241 38.4911 37.7722C38.6237 38.1178 38.69 38.538 38.69 39.0328V39.4092H34.354V38.6138H37.6495C37.6495 38.3344 37.5927 38.087 37.479 37.8716C37.3654 37.6538 37.2056 37.4821 36.9996 37.3567C36.796 37.2312 36.5569 37.1685 36.2823 37.1685C35.984 37.1685 35.7236 37.2418 35.5011 37.3886C35.2809 37.533 35.1104 37.7224 34.9897 37.9568C34.8713 38.1888 34.8121 38.4409 34.8121 38.7132V39.3347C34.8121 39.6992 34.8761 40.0094 35.0039 40.265C35.1341 40.5207 35.3152 40.716 35.5472 40.851C35.7792 40.9836 36.0503 41.0498 36.3604 41.0498C36.5617 41.0498 36.7451 41.0214 36.9109 40.9646C37.0766 40.9054 37.2198 40.8178 37.3406 40.7018C37.4613 40.5858 37.5536 40.4426 37.6175 40.2722L38.6225 40.4533C38.542 40.7492 38.3976 41.0084 38.1893 41.231C37.9833 41.4511 37.7241 41.6228 37.4116 41.7459C37.1014 41.8666 36.7475 41.927 36.3498 41.927Z" fill="white" fill-opacity="0.8"/>
</svg>
