<svg width="31" height="31" viewBox="0 0 31 31" fill="none" xmlns="http://www.w3.org/2000/svg">
<path d="M24.8915 11.1362C24.8915 5.82072 20.7192 1.51172 15.5725 1.51172C10.4257 1.51172 6.25346 5.82078 6.25346 11.1362C6.25346 13.5399 7.10675 15.7377 8.51743 17.4243L10.5557 21.1193C11.0881 22.105 11.2858 22.7415 12.1779 22.7415H18.8244C19.7166 22.7415 19.9791 22.0713 20.4466 21.1193L22.6276 17.4243C24.0383 15.7377 24.8915 13.5399 24.8915 11.1362Z" fill="#FFE46A"/>
<path d="M6.82999 12.3083C6.82999 6.81544 10.9701 2.27564 16.3447 1.54799C16.0765 1.52402 15.8075 1.51192 15.5383 1.51172C10.3915 1.51172 6.21925 5.82078 6.21925 11.1362C6.21925 12.8854 6.67148 14.5252 7.46119 15.9387C7.0525 14.8035 6.82999 13.5815 6.82999 12.3083Z" fill="#FFF0B7"/>
<path d="M24.8915 11.1568C24.8915 9.25288 24.3561 7.47825 23.4325 5.98438C23.6302 6.76447 23.7302 7.56612 23.7302 8.37089C23.7302 14.6953 17.6066 19.8459 9.95693 20.0544L10.5557 21.14C11.0881 22.1257 11.2858 22.7622 12.1779 22.7622H18.8244C19.7166 22.7622 19.9791 22.0919 20.4466 21.14L22.6276 17.445H22.6275C24.0381 15.7583 24.8915 13.5605 24.8915 11.1568Z" fill="#FFDA00"/>
<path d="M19.4903 12.7876C19.4994 12.7797 19.5083 12.7724 19.5174 12.7637C19.6861 12.6022 19.8251 12.3447 19.7088 12.1058C19.2317 11.1264 17.7731 10.8156 16.7103 11.14C16.6564 11.1564 16.6043 11.1742 16.5536 11.1936C15.9746 10.8555 15.2558 10.7743 14.616 10.9775C14.5403 11.0015 14.4659 11.0296 14.3933 11.0619C14.0431 10.8572 13.6333 10.7551 13.2251 10.7946C12.3707 10.8773 11.6282 11.5702 11.4811 12.4144L11.4137 12.456C11.996 13.397 13.5287 16.0931 13.6269 17.2533C13.7507 18.717 13.627 22.69 13.6257 22.73L14.3519 22.7529C14.3571 22.5881 14.4782 18.6976 14.3508 17.1921C14.294 16.5208 13.8832 15.4509 13.1299 14.0121C12.7783 13.3405 12.4369 12.7509 12.2303 12.403C12.3732 11.94 12.8121 11.5645 13.2951 11.5179C13.4421 11.5036 13.5913 11.5201 13.7341 11.562C13.6804 11.6308 13.6333 11.7045 13.5936 11.7823C13.3486 12.2627 13.451 12.8659 13.8317 13.1855C14.0573 13.3747 14.385 13.4444 14.6871 13.3671C14.9685 13.2952 15.1859 13.1103 15.2837 12.8598C15.3716 12.6347 15.3641 12.3748 15.2615 12.0875C15.2021 11.9222 15.1195 11.7661 15.0163 11.624C15.2905 11.5712 15.5735 11.5867 15.8403 11.669C15.7365 11.7886 15.6571 11.9217 15.6048 12.066C15.4932 12.3748 15.5425 12.7419 15.7336 13.024C15.8984 13.2671 16.1488 13.4116 16.4207 13.4206C16.4298 13.4209 16.439 13.4211 16.448 13.4211C16.6862 13.4211 16.9124 13.3186 17.0875 13.1306C17.2932 12.9098 17.3978 12.6033 17.3674 12.3106C17.3481 12.1245 17.282 11.9425 17.1754 11.7737C17.9162 11.6391 18.6409 11.8894 18.9544 12.2694C18.7652 12.5842 18.3767 13.2448 17.9749 14.0122C17.2216 15.451 16.8108 16.521 16.754 17.1922C16.6267 18.6977 16.7477 22.5882 16.7529 22.7531L17.4791 22.7301C17.4778 22.6901 17.3541 18.7174 17.4779 17.2535C17.5663 16.209 18.8168 13.9206 19.4903 12.7876ZM14.6068 12.5956C14.5899 12.639 14.5262 12.6583 14.5071 12.6632C14.4314 12.6825 14.3457 12.6684 14.2987 12.629C14.1767 12.5266 14.1502 12.29 14.2407 12.1124C14.2705 12.0552 14.3082 12.0026 14.3528 11.956C14.4503 12.0667 14.5279 12.1937 14.5772 12.3319C14.6175 12.4445 14.6282 12.5407 14.6068 12.5956ZM16.5558 12.6352C16.5346 12.658 16.4913 12.6953 16.4445 12.6943C16.3942 12.6927 16.3543 12.6448 16.335 12.6163C16.2749 12.5275 16.2556 12.4027 16.288 12.313C16.3254 12.2095 16.3977 12.1248 16.4819 12.0566C16.5758 12.1626 16.6334 12.2766 16.6447 12.3856C16.6534 12.4686 16.6176 12.5689 16.5558 12.6352Z" fill="#FAAF63"/>
<path d="M19.1287 24.3823H11.982C11.5824 24.3823 11.2555 24.7093 11.2555 25.1089V25.5301C11.2555 25.9297 11.5824 26.2567 11.982 26.2567H14.2902C13.602 26.5127 12.8753 27.1216 12.8753 27.8276V28.111C13.4277 28.7318 13.9421 29.8112 14.9219 29.8112H16.2473C17.0191 29.8112 17.5674 28.978 18.2354 28.111V27.8276C18.2354 27.1216 17.5421 26.5127 16.8702 26.2567H19.1287C19.5283 26.2567 19.8553 25.9297 19.8553 25.5301V25.1089C19.8553 24.7093 19.5283 24.3823 19.1287 24.3823Z" fill="#6B83A5"/>
<path d="M19.6418 24.3823H11.469C11.0694 24.3823 10.7424 24.0553 10.7424 23.6557V23.2345C10.7424 22.8349 11.0694 22.5079 11.469 22.5079H19.6418C20.0414 22.5079 20.3683 22.8349 20.3683 23.2345V23.6557C20.3683 24.0553 20.0414 24.3823 19.6418 24.3823ZM19.2175 27.4045V26.9833C19.2175 26.5836 18.8906 26.2567 18.491 26.2567H12.6198C12.2202 26.2567 11.8932 26.5836 11.8932 26.9833V27.4045C11.8932 27.8041 12.2202 28.131 12.6198 28.131H18.491C18.8906 28.131 19.2175 27.8041 19.2175 27.4045Z" fill="#ABBDDB"/>
</svg>
