<svg width="32" height="48" viewBox="0 0 32 48" fill="none" xmlns="http://www.w3.org/2000/svg">
<path d="M15.5 17.377C13.7812 17.377 12.3099 16.765 11.0859 15.541C9.86198 14.3171 9.25 12.8457 9.25 11.127C9.25 9.4082 9.86198 7.93685 11.0859 6.71289C12.3099 5.48893 13.7812 4.87695 15.5 4.87695C17.2188 4.87695 18.6901 5.48893 19.9141 6.71289C21.138 7.93685 21.75 9.4082 21.75 11.127C21.75 12.8457 21.138 14.3171 19.9141 15.541C18.6901 16.765 17.2188 17.377 15.5 17.377ZM24.875 29.8769H6.125C5.26563 29.8769 4.52969 29.5707 3.91719 28.9582C3.30469 28.3457 2.99896 27.6103 3 26.7519V25.502C3 24.6165 3.22813 23.8025 3.68438 23.0598C4.14063 22.3171 4.74584 21.7509 5.5 21.3613C7.11458 20.554 8.75521 19.9483 10.4219 19.5441C12.0885 19.14 13.7812 18.9384 15.5 18.9395C17.2188 18.9395 18.9115 19.1415 20.5781 19.5457C22.2448 19.9499 23.8854 20.5551 25.5 21.3613C26.2552 21.752 26.8609 22.3186 27.3172 23.0613C27.7734 23.804 28.001 24.6176 28 25.502V26.7519C28 27.6113 27.6937 28.3473 27.0812 28.9598C26.4687 29.5723 25.7333 29.878 24.875 29.8769ZM6.125 26.7519H24.875V25.502C24.875 25.2155 24.8031 24.9551 24.6594 24.7207C24.5156 24.4863 24.3271 24.304 24.0937 24.1738C22.6875 23.4707 21.2682 22.9436 19.8359 22.5926C18.4036 22.2415 16.9583 22.0655 15.5 22.0645C14.0417 22.0645 12.5964 22.2405 11.1641 22.5926C9.73177 22.9447 8.3125 23.4717 6.90625 24.1738C6.67188 24.304 6.48281 24.4863 6.33906 24.7207C6.19531 24.9551 6.12396 25.2155 6.125 25.502V26.7519ZM15.5 14.252C16.3594 14.252 17.0953 13.9457 17.7078 13.3332C18.3203 12.7207 18.626 11.9853 18.625 11.127C18.625 10.2676 18.3187 9.53164 17.7062 8.91914C17.0937 8.30664 16.3583 8.00091 15.5 8.00195C14.6406 8.00195 13.9047 8.3082 13.2922 8.9207C12.6797 9.5332 12.374 10.2686 12.375 11.127C12.375 11.9863 12.6813 12.7223 13.2938 13.3348C13.9063 13.9473 14.6417 14.253 15.5 14.252Z" fill="white" fill-opacity="0.8"/>
<path d="M0.799006 46.877V39.6042H3.39134C3.95715 39.6042 4.4259 39.7072 4.79759 39.9132C5.16927 40.1191 5.44744 40.4009 5.6321 40.7583C5.81676 41.1135 5.90909 41.5136 5.90909 41.9586C5.90909 42.4061 5.81558 42.8085 5.62855 43.166C5.44389 43.5211 5.16454 43.8029 4.79048 44.0112C4.4188 44.2172 3.95123 44.3201 3.38778 44.3201H1.60511V43.3897H3.28835C3.64583 43.3897 3.93584 43.3282 4.15838 43.2051C4.38092 43.0796 4.54427 42.9092 4.64844 42.6937C4.7526 42.4783 4.80469 42.2333 4.80469 41.9586C4.80469 41.684 4.7526 41.4402 4.64844 41.2271C4.54427 41.014 4.37973 40.8471 4.15483 40.7264C3.93229 40.6056 3.63873 40.5453 3.27415 40.5453H1.89631V46.877H0.799006ZM7.11026 46.877V41.4224H8.13654V42.2889H8.19336C8.29279 41.9953 8.46798 41.7645 8.71893 41.5964C8.97224 41.426 9.2587 41.3407 9.5783 41.3407C9.64459 41.3407 9.72272 41.3431 9.81268 41.3478C9.90501 41.3526 9.97721 41.3585 10.0293 41.3656V42.3812C9.98668 42.3694 9.91093 42.3564 9.80202 42.3422C9.69312 42.3256 9.58422 42.3173 9.47532 42.3173C9.22437 42.3173 9.00065 42.3706 8.80415 42.4771C8.61003 42.5813 8.45614 42.7269 8.34251 42.9139C8.22887 43.0985 8.17205 43.3092 8.17205 43.546V46.877H7.11026ZM13.0504 46.987C12.5391 46.987 12.0928 46.8699 11.7116 46.6355C11.3305 46.4011 11.0346 46.0732 10.8239 45.6518C10.6132 45.2304 10.5078 44.738 10.5078 44.1745C10.5078 43.6087 10.6132 43.1139 10.8239 42.6902C11.0346 42.2664 11.3305 41.9373 11.7116 41.7029C12.0928 41.4686 12.5391 41.3514 13.0504 41.3514C13.5618 41.3514 14.008 41.4686 14.3892 41.7029C14.7704 41.9373 15.0663 42.2664 15.277 42.6902C15.4877 43.1139 15.593 43.6087 15.593 44.1745C15.593 44.738 15.4877 45.2304 15.277 45.6518C15.0663 46.0732 14.7704 46.4011 14.3892 46.6355C14.008 46.8699 13.5618 46.987 13.0504 46.987ZM13.054 46.0957C13.3854 46.0957 13.66 46.0081 13.8778 45.8329C14.0956 45.6577 14.2566 45.4245 14.3608 45.1333C14.4673 44.8422 14.5206 44.5214 14.5206 44.171C14.5206 43.823 14.4673 43.5034 14.3608 43.2122C14.2566 42.9186 14.0956 42.6831 13.8778 42.5055C13.66 42.3279 13.3854 42.2392 13.054 42.2392C12.7202 42.2392 12.4432 42.3279 12.223 42.5055C12.0052 42.6831 11.843 42.9186 11.7365 43.2122C11.6323 43.5034 11.5803 43.823 11.5803 44.171C11.5803 44.5214 11.6323 44.8422 11.7365 45.1333C11.843 45.4245 12.0052 45.6577 12.223 45.8329C12.4432 46.0081 12.7202 46.0957 13.054 46.0957ZM19.3741 41.4224V42.2747H16.2917V41.4224H19.3741ZM17.1369 46.877V40.7903C17.1369 40.4494 17.2115 40.1665 17.3606 39.9416C17.5098 39.7143 17.7074 39.545 17.9537 39.4338C18.1999 39.3201 18.4674 39.2633 18.7562 39.2633C18.9693 39.2633 19.1516 39.2811 19.3031 39.3166C19.4546 39.3497 19.5671 39.3805 19.6404 39.4089L19.3919 40.2683C19.3422 40.2541 19.2782 40.2375 19.2001 40.2186C19.122 40.1973 19.0273 40.1866 18.916 40.1866C18.658 40.1866 18.4733 40.2505 18.362 40.3784C18.2531 40.5062 18.1987 40.6909 18.1987 40.9324V46.877H17.1369ZM20.4696 46.877V41.4224H21.5314V46.877H20.4696ZM21.0059 40.5808C20.8212 40.5808 20.6626 40.5192 20.53 40.3961C20.3998 40.2707 20.3347 40.1215 20.3347 39.9487C20.3347 39.7735 20.3998 39.6243 20.53 39.5012C20.6626 39.3758 20.8212 39.313 21.0059 39.313C21.1905 39.313 21.348 39.3758 21.4782 39.5012C21.6107 39.6243 21.677 39.7735 21.677 39.9487C21.677 40.1215 21.6107 40.2707 21.4782 40.3961C21.348 40.5192 21.1905 40.5808 21.0059 40.5808ZM24.0217 39.6042V46.877H22.9599V39.6042H24.0217ZM27.801 46.987C27.2636 46.987 26.8007 46.8722 26.4125 46.6426C26.0266 46.4106 25.7283 46.085 25.5176 45.666C25.3092 45.2446 25.2051 44.751 25.2051 44.1852C25.2051 43.6265 25.3092 43.1341 25.5176 42.7079C25.7283 42.2818 26.0218 41.9492 26.3983 41.71C26.777 41.4709 27.2198 41.3514 27.7264 41.3514C28.0342 41.3514 28.3324 41.4023 28.6213 41.5041C28.9101 41.6059 29.1693 41.7657 29.399 41.9835C29.6286 42.2013 29.8097 42.4842 29.9423 42.8322C30.0749 43.1779 30.1412 43.5981 30.1412 44.0929V44.4693H25.8052V43.6738H29.1007C29.1007 43.3945 29.0439 43.1471 28.9302 42.9316C28.8166 42.7138 28.6568 42.5422 28.4508 42.4167C28.2472 42.2913 28.0081 42.2285 27.7335 42.2285C27.4352 42.2285 27.1748 42.3019 26.9522 42.4487C26.7321 42.5931 26.5616 42.7825 26.4409 43.0169C26.3225 43.2489 26.2633 43.501 26.2633 43.7733V44.3947C26.2633 44.7593 26.3272 45.0694 26.4551 45.3251C26.5853 45.5808 26.7664 45.7761 26.9984 45.911C27.2304 46.0436 27.5015 46.1099 27.8116 46.1099C28.0128 46.1099 28.1963 46.0815 28.362 46.0247C28.5278 45.9655 28.671 45.8779 28.7917 45.7619C28.9125 45.6459 29.0048 45.5027 29.0687 45.3322L30.0737 45.5133C29.9932 45.8092 29.8488 46.0685 29.6404 46.291C29.4345 46.5112 29.1752 46.6828 28.8627 46.8059C28.5526 46.9267 28.1987 46.987 27.801 46.987Z" fill="white" fill-opacity="0.8"/>
</svg>
